<svg width="525" height="641" viewBox="0 0 525 641" fill="none" xmlns="http://www.w3.org/2000/svg">
<ellipse cx="109.228" cy="176.442" rx="109.228" ry="126.19" fill="#FAF9F9"/>
<ellipse cx="247.085" cy="455.066" rx="107.026" ry="122.281" fill="#FAF9F9"/>
<ellipse cx="233.431" cy="142.941" rx="116.275" ry="142.941" fill="#FAF9F9"/>
<path d="M220.218 344.509C220.218 416.669 174.076 475.166 117.156 475.166C60.2365 475.166 14.094 416.669 14.094 344.509C14.094 272.35 60.2365 213.853 117.156 213.853C174.076 213.853 220.218 272.35 220.218 344.509Z" fill="#FAF9F9"/>
<ellipse cx="298.616" cy="332.784" rx="110.99" ry="142.941" fill="#FAF9F9"/>
<ellipse cx="359.396" cy="213.295" rx="81.9211" ry="110.556" fill="#FAF9F9"/>
<ellipse cx="153.803" cy="209.854" rx="122.091" ry="135.709" fill="#F2EFEF"/>
<ellipse cx="307.894" cy="509.494" rx="119.63" ry="131.506" fill="#F2EFEF"/>
<ellipse cx="292.633" cy="173.825" rx="129.968" ry="153.724" fill="#F2EFEF"/>
<path d="M277.863 390.599C277.863 468.202 226.287 531.112 162.664 531.112C99.0416 531.112 47.4651 468.202 47.4651 390.599C47.4651 312.996 99.0416 250.086 162.664 250.086C226.287 250.086 277.863 312.996 277.863 390.599Z" fill="#F2EFEF"/>
<ellipse cx="365.493" cy="377.989" rx="124.061" ry="153.724" fill="#F2EFEF"/>
<ellipse cx="433.431" cy="249.485" rx="91.5686" ry="118.896" fill="#F2EFEF"/>
<path d="M335.758 276.231H183.336C180.608 276.163 177.903 276.894 175.42 278.37C172.936 279.846 170.738 282.03 168.986 284.76C167.234 287.491 165.973 290.699 165.295 294.15C164.618 297.6 164.541 301.205 165.071 304.699L178.612 393.288C179.332 398.02 181.304 402.27 184.183 405.295C187.062 408.32 190.664 409.927 194.358 409.834H324.657C328.352 409.927 331.954 408.32 334.833 405.295C337.712 402.27 339.684 398.02 340.404 393.288L354.024 304.699C354.14 303.161 354.14 301.612 354.024 300.074C354.024 293.75 352.099 287.686 348.674 283.214C345.249 278.743 340.603 276.231 335.758 276.231V276.231ZM271.357 322.478C271.357 326.567 270.113 330.488 267.898 333.379C265.683 336.27 262.679 337.894 259.547 337.894C259.547 333.806 260.791 329.884 263.006 326.993C265.221 324.102 268.225 322.478 271.357 322.478ZM268.68 373.864C265.81 373.456 262.968 372.769 260.177 371.809C257.386 372.769 254.544 373.456 251.674 373.864C246.95 373.864 239.943 362.765 239.943 353.31C240.14 349.695 241.318 346.29 243.267 343.709C245.215 341.128 247.806 339.539 250.572 339.23C254.115 339.23 257.264 341.286 260.177 341.286C263.09 341.286 266.239 339.23 269.782 339.23C272.839 339.685 275.651 341.631 277.655 344.677C274.191 345.705 271.672 348.685 271.672 352.282C271.672 355.879 274.9 359.682 279.072 360.196C277.025 367.595 272.223 373.864 268.68 373.864Z" fill="black"/>
<path d="M221.442 263.588C221.798 264.312 222.287 264.908 222.865 265.321C223.442 265.734 224.09 265.951 224.749 265.952H290.567C291.226 265.951 291.874 265.734 292.452 265.321C293.029 264.908 293.518 264.312 293.874 263.588C296.873 255.487 298.587 246.678 298.913 237.69C299.027 233.011 297.823 228.44 295.527 224.843C297.496 220.195 298.653 215.036 298.913 209.736L301.432 206.858C301.847 206.382 302.181 205.798 302.411 205.143C302.642 204.488 302.764 203.777 302.771 203.056C302.849 183.735 287.025 163.18 261.437 163.18C252.798 162.321 244.206 165.489 237.188 172.121C232.571 173.628 228.437 177.005 225.382 181.769C222.327 186.533 220.506 192.438 220.182 198.636V202.85C219.93 209.886 220.167 216.938 220.891 223.918C219.409 225.648 218.228 227.772 217.426 230.148C216.625 232.523 216.223 235.095 216.246 237.69C216.621 246.692 218.389 255.502 221.442 263.588V263.588Z" fill="black"/>
</svg>
