<svg width="554" height="641" viewBox="0 0 554 641" fill="none" xmlns="http://www.w3.org/2000/svg">
<ellipse cx="115.262" cy="176.442" rx="115.262" ry="126.19" fill="#FAF9F9"/>
<ellipse cx="260.733" cy="455.066" rx="112.938" ry="122.281" fill="#FAF9F9"/>
<ellipse cx="246.326" cy="142.941" rx="122.698" ry="142.941" fill="#FAF9F9"/>
<path d="M232.383 344.509C232.383 416.669 183.691 475.166 123.628 475.166C63.5638 475.166 14.8725 416.669 14.8725 344.509C14.8725 272.35 63.5638 213.853 123.628 213.853C183.691 213.853 232.383 272.35 232.383 344.509Z" fill="#FAF9F9"/>
<ellipse cx="315.111" cy="332.784" rx="117.121" ry="142.941" fill="#FAF9F9"/>
<ellipse cx="379.248" cy="213.295" rx="86.4463" ry="110.556" fill="#FAF9F9"/>
<ellipse cx="162.299" cy="209.854" rx="128.835" ry="135.709" fill="#F2EFEF"/>
<ellipse cx="324.901" cy="509.494" rx="126.238" ry="131.506" fill="#F2EFEF"/>
<ellipse cx="308.797" cy="173.825" rx="137.147" ry="153.724" fill="#F2EFEF"/>
<path d="M293.212 390.599C293.212 468.202 238.787 531.112 171.65 531.112C104.512 531.112 50.087 468.202 50.087 390.599C50.087 312.996 104.512 250.086 171.65 250.086C238.787 250.086 293.212 312.996 293.212 390.599Z" fill="#F2EFEF"/>
<ellipse cx="385.683" cy="377.989" rx="130.913" ry="153.724" fill="#F2EFEF"/>
<ellipse cx="457.373" cy="249.485" rx="96.6266" ry="118.896" fill="#F2EFEF"/>
<path d="M354.305 276.231H193.463C190.584 276.163 187.73 276.894 185.109 278.37C182.489 279.846 180.169 282.03 178.32 284.76C176.471 287.491 175.141 290.699 174.426 294.15C173.711 297.6 173.63 301.205 174.189 304.699L188.479 393.288C189.238 398.02 191.319 402.27 194.357 405.295C197.394 408.32 201.195 409.927 205.094 409.834H342.591C346.49 409.927 350.291 408.32 353.328 405.295C356.366 402.27 358.447 398.02 359.207 393.288L373.579 304.699C373.702 303.161 373.702 301.612 373.579 300.074C373.579 293.75 371.549 287.686 367.934 283.214C364.319 278.743 359.417 276.231 354.305 276.231V276.231ZM286.346 322.478C286.346 326.567 285.033 330.488 282.696 333.379C280.359 336.27 277.189 337.894 273.884 337.894C273.884 333.806 275.197 329.884 277.534 326.993C279.871 324.102 283.041 322.478 286.346 322.478ZM283.521 373.864C280.493 373.456 277.494 372.769 274.549 371.809C271.603 372.769 268.604 373.456 265.576 373.864C260.591 373.864 253.197 362.765 253.197 353.31C253.404 349.695 254.648 346.29 256.704 343.709C258.761 341.128 261.494 339.539 264.413 339.23C268.152 339.23 271.475 341.286 274.549 341.286C277.623 341.286 280.946 339.23 284.684 339.23C287.91 339.685 290.877 341.631 292.992 344.677C289.337 345.705 286.678 348.685 286.678 352.282C286.678 355.879 290.085 359.682 294.488 360.196C292.328 367.595 287.26 373.864 283.521 373.864Z" fill="black"/>
<path d="M233.674 263.588C234.049 264.312 234.565 264.908 235.175 265.321C235.785 265.734 236.468 265.951 237.163 265.952H306.618C307.313 265.951 307.996 265.734 308.606 265.321C309.216 264.908 309.732 264.312 310.107 263.588C313.271 255.487 315.08 246.678 315.424 237.69C315.545 233.011 314.274 228.44 311.852 224.843C313.93 220.195 315.15 215.036 315.424 209.736L318.083 206.858C318.521 206.382 318.873 205.798 319.116 205.143C319.359 204.488 319.488 203.777 319.495 203.056C319.578 183.735 302.879 163.18 275.878 163.18C266.762 162.321 257.695 165.489 250.29 172.121C245.417 173.628 241.056 177.005 237.832 181.769C234.608 186.533 232.687 192.438 232.345 198.636V202.85C232.078 209.886 232.329 216.938 233.093 223.918C231.529 225.648 230.282 227.772 229.437 230.148C228.591 232.523 228.166 235.095 228.191 237.69C228.587 246.692 230.452 255.502 233.674 263.588V263.588Z" fill="black"/>
</svg>
